<?xml version="1.0" encoding="UTF-8"?><svg id="a" xmlns="http://www.w3.org/2000/svg" viewBox="0 0 16 16"><path d="M6.8,10.47h0c.79.17,1.61.17,2.4,0h0" style="fill:none; stroke:#000; stroke-linecap:round; stroke-miterlimit:10;"/><path d="M11.26,7c0-.62-.49-1.12-1.1-1.12s-1.1.5-1.1,1.12.49,1.12,1.1,1.12,1.1-.5,1.1-1.12ZM9.92,7.69c.18-.3-.15-.67-.46-.53-.14-.53.41-1.05.93-.86-.27.3.14.78.47.55.14.52-.43,1.06-.94.84Z" style="fill:none;"/><path d="M5.84,5.88c-.61,0-1.1.5-1.1,1.12s.49,1.12,1.1,1.12,1.1-.5,1.1-1.12-.49-1.12-1.1-1.12ZM5.6,7.69c.18-.3-.15-.67-.46-.53-.14-.53.41-1.05.93-.86-.27.3.14.78.47.55.14.52-.43,1.06-.94.84Z" style="fill:none;"/><path d="M6.07,6.31c-.52-.19-1.08.32-.93.86.32-.15.64.23.46.53.52.22,1.09-.32.94-.84-.34.23-.74-.24-.47-.55Z"/><path d="M5.84,5.43c-.85,0-1.54.7-1.54,1.57s.69,1.57,1.54,1.57,1.55-.7,1.55-1.57-.69-1.57-1.55-1.57ZM5.84,8.13c-.61,0-1.1-.5-1.1-1.12s.49-1.12,1.1-1.12,1.1.5,1.1,1.12-.49,1.12-1.1,1.12Z"/><path d="M10.87,6.85c-.34.23-.74-.24-.47-.55-.52-.19-1.08.32-.93.86.32-.15.64.23.46.53.52.22,1.09-.32.94-.84Z"/><path d="M11.71,7c0-.87-.69-1.57-1.55-1.57s-1.54.7-1.54,1.57.69,1.57,1.54,1.57,1.55-.7,1.55-1.57ZM9.06,7c0-.62.49-1.12,1.1-1.12s1.1.5,1.1,1.12-.49,1.12-1.1,1.12-1.1-.5-1.1-1.12Z"/><path d="M13.6,6.29h-.11c-.38-3.22-2.35-4.5-4.17-4.88-.03-.49-.37-.82-.88-.82h-.89c-.52,0-.87.35-.89.86-1.77.47-3.67,1.92-4.12,4.84h-.15c-.35,0-.63.28-.63.63v1.41c0,.35.28.63.63.63h.21c.4,1.89,1.38,4.04,1.38,4.04h.58v-.89h0c-.48-1.15-1.24-3.25-1.24-4.5,0-4.32,3.05-5.46,4.66-5.46,1.4,0,4.67.52,4.67,5.29,0,1.86-.8,3.8-1.21,4.66h0v.89h.55s1.03-1.87,1.41-4.04h.18c.35,0,.63-.28.63-.63v-1.41c0-.35-.28-.63-.63-.63Z"/><polygon points="5.22 12.5 5.22 15.41 8 14.23 10.78 15.41 10.78 12.5 8 13.43 5.22 12.5"/></svg>