<?xml version="1.0" encoding="UTF-8"?>
<svg id="Layer_1" xmlns="http://www.w3.org/2000/svg" version="1.1" viewBox="22 21 56 56">
  <!-- Generator: Adobe Illustrator 29.3.1, SVG Export Plug-In . SVG Version: 2.1.0 Build 151)  -->
  <path d="M75.7,48.3c0-.5-.3-.8-.6-.8h-1.9c0,0-.2,0-.3,0,0-.1,0-.3,0-.4,0-.3,0-.5,0-.7-.5-6.7-3.1-12-7.6-15.5-2.4-1.9-5.2-3.2-8.7-4.2h-.2c-.1,0-.4-.1-.6-.2,0,0,0-.1,0-.2,0-.2-.2-1.2-1.1-2.5-.8-1.2-3.3-1.4-4.1-1.4-1.8,0-3.9.3-4.7,1.4-.7.9-1,2.3-1.1,2.5,0,0,0,0,0,.1-2.3.6-4.2,1.3-6,2.2-6.3,3.2-10.1,8.6-11.1,15.9,0,.6-.1,1.3-.1,1.9,0,.4,0,.8,0,1.2h-2.5c-.3.3-.3.7-.3,1.2,0,.1,0,.3,0,.4-.1,2.4-.2,4.9,0,7,0,.2,0,.6.3.9.2.2.6.2,1.1.2.2,0,.5,0,.6,0h1.8c0,0,0,.1,0,.2,0,.3.1.6.2,1,0,.2,0,.4.1.6,1.1,4.5,2.6,8.9,4.6,13,0,.1.1.4.4.9.1.2.2.4.2.5v.3h31.8c.3,0,.6-.1.8-.4.1-.3.4-.8.4-.8h0c2-4.3,3.7-9,4.9-14.3v-.2c0-.2.1-.5.2-.7h1.8s.1,0,.1,0c0,0,.4,0,.5,0,.5,0,1,0,1.1-.5,0-.2,0-.5,0-1.2,0-.2,0-.3,0-.4v-.4c0-1,0-2,0-3.1,0-1,0-2,0-2.9h0v-.5ZM64.9,70.9h-29.7c0,0-.1-.2-.1-.3h0c-.9-1.9-1.8-4.6-2.4-6.4,0-.3-.4-1.5-.8-2.5-.2-.7-.4-1.3-.4-1.4-.6-2.1-1.1-4.5-1.3-6.2,0-.2,0-.7-.1-1.5,0-.6-.1-1.2-.1-1.4-.4-4.7.2-9.2,1.8-12.6,2.6-5.7,8.1-9.5,15.6-10.6,1.9-.3,3.1-.3,4.9-.2,4.1.4,8.5,2.2,11.7,4.7,6.9,5.5,7,14.3,6.4,19.1v.2c0,.1,0,.7-.1,1.2-.1,1.1-.2,1.6-.2,1.6-.2,1.7-.5,3.3-1,5,0,.3-.2.6-.3,1-.1.3-.2.7-.3,1-.1.4-.4,1.2-.4,1.4l-.4,1.2c-.7,1.9-1.4,3.9-2.2,5.7-.2.5-.3.8-.4.9Z"/>
  <path d="M55.3,61.2c-.3,0-.7,0-.9,0l-1.7.3c-1.8.3-3.7.3-5.4,0l-1.3-.3h-1.4c-.5.2-.9.6-.9,1v3.1c0,.7.8,1.2,1.8,1.2l1.6.3c2,.3,3.9.3,5.9,0l1.6-.3c.9,0,1.8-.5,1.8-1.2v-3.1c0-.5-.4-.9-1.1-1.1Z"/>
  <path d="M59.4,43.2c-3.8,0-6.8,3.1-6.8,6.9s3.1,6.9,6.8,6.9,6.8-3.1,6.8-6.9-3.1-6.9-6.8-6.9ZM59.4,54.7h-.7c-1-.1-1.8-.6-2.5-1.3-.9-.9-1.4-2.1-1.4-3.4s.5-2.4,1.4-3.3c.9-.9,2-1.4,3.3-1.4s2.4.5,3.3,1.4c.9.9,1.4,2.1,1.4,3.3s-.5,2.4-1.4,3.3c-.9.9-2,1.4-3.3,1.4Z"/>
  <path d="M62.8,49.4h0c-.3.1-.6.2-1,.2-1,0-1.8-.8-1.8-1.8s.1-.8.4-1.2c-.4-.1-.7-.2-1.2-.2-1.9,0-3.5,1.6-3.5,3.6s0,.6,0,.8c.2,0,.5-.1.7-.1,1,0,1.8.8,1.8,1.8s0,.6-.2.9c.4.1.8.2,1.2.2,1.9,0,3.5-1.6,3.5-3.6s0-.5,0-.7Z"/>
  <path d="M47.4,50.2c0-3.8-3.1-6.9-6.8-6.9s-6.8,3.1-6.8,6.9,3.1,6.9,6.8,6.9,6.8-3.1,6.8-6.9ZM37.3,53.5c-.9-.9-1.4-2-1.4-3.3,0-1.2.5-2.4,1.4-3.3,1.8-1.8,4.8-1.8,6.5,0,.9.9,1.4,2.1,1.4,3.3s-.5,2.4-1.4,3.3c-1.8,1.8-4.8,1.8-6.5,0Z"/>
  <path d="M44,49.6c-.3.2-.6.3-1,.3-1,0-1.8-.8-1.8-1.8s.1-.8.4-1.2c-.5-.2-1-.2-1.7-.2-1.6.1-3,1.5-3,3.1,0,2.5,0,.9,0,1.2.2,0,.5-.1.7-.1,1,0,1.8.8,1.8,1.8s0,.6-.2.9c.4.1.8.2,1.2.2h0c1.9,0,3.5-1.7,3.5-3.6s0-.5,0-.7Z"/>
</svg>
